<?xml version="1.0" encoding="UTF-8" standalone="no" ?>
<!DOCTYPE svg PUBLIC "-//W3C//DTD SVG 1.1//EN" "http://www.w3.org/Graphics/SVG/1.1/DTD/svg11.dtd">
<svg xmlns="http://www.w3.org/2000/svg" xmlns:xlink="http://www.w3.org/1999/xlink" version="1.1" width="500" height="500" viewBox="0 0 500 500" xml:space="preserve">
<desc>Created with Fabric.js 4.6.0</desc>
<defs>
</defs>
<g transform="matrix(1 0 0 1 250 250)" id="msps0UYL6CnU0EDiftinU"  >
<path style="stroke: none; stroke-width: 1; stroke-dasharray: none; stroke-linecap: butt; stroke-dashoffset: 0; stroke-linejoin: miter; stroke-miterlimit: 4; fill: none; fill-rule: nonzero; opacity: 1;" vector-effect="non-scaling-stroke"  transform=" translate(-12, -12)" d="M 0 0 L 24 0 L 24 24 L 0 24 z" stroke-linecap="round" />
</g>
<g transform="matrix(1 0 0 1 250 250)" id="U7uwbeF2KqgnYlw8EH6CK"  >
<path style="stroke: none; stroke-width: 1; stroke-dasharray: none; stroke-linecap: butt; stroke-dashoffset: 0; stroke-linejoin: miter; stroke-miterlimit: 4; fill: none; fill-rule: nonzero; opacity: 1;" vector-effect="non-scaling-stroke"  transform=" translate(-12, -12)" d="M 12 2 C 6.47 2 2 6.47 2 12 C 2 17.53 6.47 22 12 22 C 17.53 22 22 17.53 22 12 C 22 6.469999999999999 17.53 2 12 2 z M 17 15.59 L 15.59 17 L 12 13.41 L 8.41 17 L 7 15.59 L 10.59 12 L 7 8.41 L 8.41 7 L 12 10.59 L 15.59 7 L 17 8.41 L 13.41 12 L 17 15.59 z" stroke-linecap="round" />
</g>
<g transform="matrix(1 0 0 1 250 250)" id="q8fyeTdw6wV79rU3qgsrx"  >
<path style="stroke: none; stroke-width: 1; stroke-dasharray: none; stroke-linecap: butt; stroke-dashoffset: 0; stroke-linejoin: miter; stroke-miterlimit: 4; fill: none; fill-rule: nonzero; opacity: 1;" vector-effect="non-scaling-stroke"  transform=" translate(-12, -12)" d="M 0 0 L 24 0 L 24 24 L 0 24 z" stroke-linecap="round" />
</g>
<g transform="matrix(1 0 0 1 250 250)" id="h30yswo5Atrjiqb-GcTYC"  >
<path style="stroke: none; stroke-width: 1; stroke-dasharray: none; stroke-linecap: butt; stroke-dashoffset: 0; stroke-linejoin: miter; stroke-miterlimit: 4; fill: none; fill-rule: nonzero; opacity: 1;" vector-effect="non-scaling-stroke"  transform=" translate(-12, -12)" d="M 0 0 L 24 0 L 24 24 L 0 24 L 0 0 z M 0 0 L 24 0 L 24 24 L 0 24 L 0 0 z" stroke-linecap="round" />
</g>
<g transform="matrix(1 0 0 1 250 250)" id="hUqVXelXZ9hgC3khlTYTI"  >
<path style="stroke: none; stroke-width: 1; stroke-dasharray: none; stroke-linecap: butt; stroke-dashoffset: 0; stroke-linejoin: miter; stroke-miterlimit: 4; fill: none; fill-rule: nonzero; opacity: 1;" vector-effect="non-scaling-stroke"  transform=" translate(-12, -12)" d="M 0 0 L 24 0 L 24 24 L 0 24 L 0 0 z" stroke-linecap="round" />
</g>
<g transform="matrix(1 0 0 1 250 250)" id="j7pTkHwDPccv7hRIRuc6J"  >
<path style="stroke: none; stroke-width: 1; stroke-dasharray: none; stroke-linecap: butt; stroke-dashoffset: 0; stroke-linejoin: miter; stroke-miterlimit: 4; fill: none; fill-rule: nonzero; opacity: 1;" vector-effect="non-scaling-stroke"  transform=" translate(-12, -12)" d="M 0 0 L 24 0 L 24 24 L 0 24 L 0 0 z" stroke-linecap="round" />
</g>
<g transform="matrix(1 0 0 1 269 311.55)" id="2bnwIgCd8quuByb_IBSyB"  >
<path style="stroke: none; stroke-width: 1; stroke-dasharray: none; stroke-linecap: butt; stroke-dashoffset: 0; stroke-linejoin: miter; stroke-miterlimit: 4; fill: none; fill-rule: nonzero; opacity: 1;" vector-effect="non-scaling-stroke"  transform=" translate(-12, -12)" d="M 0 0 L 24 0 L 24 24 L 0 24 L 0 0 z" stroke-linecap="round" />
</g>
<g transform="matrix(1 0 0 1 250 250)" id="KIgwA6h-Bi7F2zjFE19ei"  >
<path style="stroke: none; stroke-width: 1; stroke-dasharray: none; stroke-linecap: butt; stroke-dashoffset: 0; stroke-linejoin: miter; stroke-miterlimit: 4; fill: none; fill-rule: nonzero; opacity: 1;" vector-effect="non-scaling-stroke"  transform=" translate(-12, -12)" d="M 0 0 L 24 0 L 24 24 L 0 24 z" stroke-linecap="round" />
</g>
<g transform="matrix(1 0 0 1 250 250)" id="opubLXpc4BsYh7mCx_kIW"  >
<path style="stroke: none; stroke-width: 1; stroke-dasharray: none; stroke-linecap: butt; stroke-dashoffset: 0; stroke-linejoin: miter; stroke-miterlimit: 4; fill: none; fill-rule: nonzero; opacity: 1;" vector-effect="non-scaling-stroke"  transform=" translate(-12, -12)" d="M 12 2 C 6.47 2 2 6.47 2 12 C 2 17.53 6.47 22 12 22 C 17.53 22 22 17.53 22 12 C 22 6.469999999999999 17.53 2 12 2 z M 17 15.59 L 15.59 17 L 12 13.41 L 8.41 17 L 7 15.59 L 10.59 12 L 7 8.41 L 8.41 7 L 12 10.59 L 15.59 7 L 17 8.41 L 13.41 12 L 17 15.59 z" stroke-linecap="round" />
</g>
<g transform="matrix(1 0 0 1 250 250)" id="29xKJ8fKh6ybM2zBYvLK0"  >
<path style="stroke: none; stroke-width: 1; stroke-dasharray: none; stroke-linecap: butt; stroke-dashoffset: 0; stroke-linejoin: miter; stroke-miterlimit: 4; fill: none; fill-rule: nonzero; opacity: 1;" vector-effect="non-scaling-stroke"  transform=" translate(-12, -12)" d="M 0 0 L 24 0 L 24 24 L 0 24 z" stroke-linecap="round" />
</g>
<g transform="matrix(1 0 0 1 250 250)" id="gDb2e2atl6pID7etJGO1J"  >
<path style="stroke: none; stroke-width: 1; stroke-dasharray: none; stroke-linecap: butt; stroke-dashoffset: 0; stroke-linejoin: miter; stroke-miterlimit: 4; fill: none; fill-rule: nonzero; opacity: 1;" vector-effect="non-scaling-stroke"  transform=" translate(-12, -12)" d="M 0 24 L 0 0 L 24 0 L 24 24 z" stroke-linecap="round" />
</g>
<g transform="matrix(1 0 0 1 250 250)" id="OKvTW-ObPq1t1U0hU7CTD"  >
<path style="stroke: none; stroke-width: 1; stroke-dasharray: none; stroke-linecap: butt; stroke-dashoffset: 0; stroke-linejoin: miter; stroke-miterlimit: 4; fill: none; fill-rule: nonzero; opacity: 1;" vector-effect="non-scaling-stroke"  transform=" translate(-12, -12)" d="M 0 0 L 24 0 L 24 24 L 0 24 z" stroke-linecap="round" />
</g>
<g transform="matrix(1 0 0 1 250 250)" id="yIgZj71bmNkqgZP3oMmjX"  >
<path style="stroke: none; stroke-width: 1; stroke-dasharray: none; stroke-linecap: butt; stroke-dashoffset: 0; stroke-linejoin: miter; stroke-miterlimit: 4; fill: none; fill-rule: nonzero; opacity: 1;" vector-effect="non-scaling-stroke"  transform=" translate(-12, -12)" d="M 0 0 L 24 0 L 24 24 L 0 24 z" stroke-linecap="round" />
</g>
<g transform="matrix(1 0 0 1 250 250)" id="w7dHrdFqq8wEH4opcII1G"  >
<path style="stroke: none; stroke-width: 1; stroke-dasharray: none; stroke-linecap: butt; stroke-dashoffset: 0; stroke-linejoin: miter; stroke-miterlimit: 4; fill: none; fill-rule: nonzero; opacity: 1;" vector-effect="non-scaling-stroke"  transform=" translate(-12, -12)" d="M 0 0 L 24 0 L 24 24 L 0 24 z" stroke-linecap="round" />
</g>
<g transform="matrix(1 0 0 1 250 249)" id="6ULQJ2eVbh74K76uXcge9"  >
<path style="stroke: none; stroke-width: 1; stroke-dasharray: none; stroke-linecap: butt; stroke-dashoffset: 0; stroke-linejoin: miter; stroke-miterlimit: 4; fill: none; fill-rule: nonzero; opacity: 1;" vector-effect="non-scaling-stroke"  transform=" translate(-12, -11)" d="M 12 6 C 13.11 6 14 5.1 14 4 C 14 3.62 13.9 3.27 13.71 2.9699999999999998 L 12 0 L 10.29 2.97 C 10.1 3.27 10 3.62 10 4 C 10 5.1 10.9 6 12 6 z M 16.6 15.99 L 15.530000000000001 14.92 L 14.450000000000001 15.99 C 13.15 17.29 10.870000000000001 17.3 9.560000000000002 15.99 L 8.490000000000002 14.92 L 7.400000000000002 15.99 C 6.75 16.64 5.88 17 4.96 17 C 4.23 17 3.56 16.77 3 16.39 L 3 21 C 3 21.55 3.45 22 4 22 L 20 22 C 20.55 22 21 21.55 21 21 L 21 16.39 C 20.44 16.77 19.77 17 19.04 17 C 18.119999999999997 17 17.25 16.64 16.599999999999998 15.99 z M 18 9 L 13 9 L 13 7 L 11 7 L 11 9 L 6 9 C 4.34 9 3 10.34 3 12 L 3 13.54 C 3 14.62 3.88 15.5 4.96 15.5 C 5.48 15.5 5.98 15.3 6.34 14.93 L 8.48 12.8 L 10.61 14.93 C 11.35 15.67 12.639999999999999 15.67 13.379999999999999 14.93 L 15.52 12.8 L 17.65 14.93 C 18.02 15.299999999999999 18.509999999999998 15.5 19.029999999999998 15.5 C 20.11 15.5 20.99 14.62 20.99 13.54 L 20.99 12 C 21 10.34 19.66 9 18 9 z" stroke-linecap="round" />
</g>
<g transform="matrix(1 0 0 1 250 250)" id="izwUKyGd4zCDT5jgsStQX"  >
<path style="stroke: none; stroke-width: 1; stroke-dasharray: none; stroke-linecap: butt; stroke-dashoffset: 0; stroke-linejoin: miter; stroke-miterlimit: 4; fill: none; fill-rule: nonzero; opacity: 1;" vector-effect="non-scaling-stroke"  transform=" translate(-12, -12)" d="M 0 0 L 24 0 L 24 24 L 0 24 z M 12 6 C 13.11 6 14 5.1 14 4 C 14 3.62 13.9 3.27 13.71 2.9699999999999998 L 12 -4.440892098500626e-16 L 10.29 2.9699999999999998 C 10.1 3.2699999999999996 10 3.6199999999999997 10 4 C 10 5.1 10.9 6 12 6 z M 16.6 15.99 L 15.530000000000001 14.92 L 14.450000000000001 15.99 C 13.15 17.29 10.870000000000001 17.3 9.560000000000002 15.99 L 8.490000000000002 14.92 L 7.400000000000002 15.99 C 6.750000000000002 16.64 5.880000000000003 17 4.960000000000003 17 C 4.230000000000002 17 3.5600000000000027 16.77 3.0000000000000027 16.39 L 3.0000000000000027 21 C 3.0000000000000027 21.55 3.450000000000003 22 4.000000000000003 22 L 20.000000000000004 22 C 20.550000000000004 22 21.000000000000004 21.55 21.000000000000004 21 L 21.000000000000004 16.39 C 20.440000000000005 16.77 19.770000000000003 17 19.040000000000003 17 C 18.12 17 17.250000000000004 16.64 16.6 15.99 z M 18 9 L 13 9 L 13 7 L 11 7 L 11 9 L 6 9 C 4.34 9 3 10.34 3 12 L 3 13.54 C 3 14.62 3.88 15.5 4.96 15.5 C 5.48 15.5 5.98 15.3 6.34 14.93 L 8.48 12.8 L 10.61 14.93 C 11.35 15.67 12.639999999999999 15.67 13.379999999999999 14.93 L 15.52 12.8 L 17.65 14.93 C 18.02 15.299999999999999 18.509999999999998 15.5 19.029999999999998 15.5 C 20.11 15.5 20.99 14.62 20.99 13.54 L 20.99 12 C 21 10.34 19.659999999999997 9 18 9 z" stroke-linecap="round" />
</g>
<g transform="matrix(1 0 0 1 250 250)" id="dwp2HAhLZq84AeK6C_mlz"  >
<path style="stroke: none; stroke-width: 1; stroke-dasharray: none; stroke-linecap: butt; stroke-dashoffset: 0; stroke-linejoin: miter; stroke-miterlimit: 4; fill: none; fill-rule: nonzero; opacity: 1;" vector-effect="non-scaling-stroke"  transform=" translate(-12, -12)" d="M 0 0 L 24 0 L 24 24 L 0 24 z" stroke-linecap="round" />
</g>
<g transform="matrix(1 0 0 1 250 250)" id="iFxoPDj9laAhoSUR4zCzn"  >
<path style="stroke: none; stroke-width: 1; stroke-dasharray: none; stroke-linecap: butt; stroke-dashoffset: 0; stroke-linejoin: miter; stroke-miterlimit: 4; fill: none; fill-rule: nonzero; opacity: 1;" vector-effect="non-scaling-stroke"  transform=" translate(-12, -12)" d="M 12 2 C 6.47 2 2 6.47 2 12 C 2 17.53 6.47 22 12 22 C 17.53 22 22 17.53 22 12 C 22 6.469999999999999 17.53 2 12 2 z M 17 15.59 L 15.59 17 L 12 13.41 L 8.41 17 L 7 15.59 L 10.59 12 L 7 8.41 L 8.41 7 L 12 10.59 L 15.59 7 L 17 8.41 L 13.41 12 L 17 15.59 z" stroke-linecap="round" />
</g>
<g transform="matrix(1 0 0 1 250 250)" id="D-Pe3TAm_VYaqul_JKWgx"  >
<path style="stroke: none; stroke-width: 1; stroke-dasharray: none; stroke-linecap: butt; stroke-dashoffset: 0; stroke-linejoin: miter; stroke-miterlimit: 4; fill: none; fill-rule: nonzero; opacity: 1;" vector-effect="non-scaling-stroke"  transform=" translate(-12, -12)" d="M 0 0 L 24 0 L 24 24 L 0 24 z" stroke-linecap="round" />
</g>
<g transform="matrix(0.6 0 0 0.6 250 250)" id="zwmh7Evz4Pka8xA6hMPik"  >
<path style="stroke: none; stroke-width: 1; stroke-dasharray: none; stroke-linecap: butt; stroke-dashoffset: 0; stroke-linejoin: miter; stroke-miterlimit: 4; fill: none; fill-rule: nonzero; opacity: 1;" vector-effect="non-scaling-stroke"  transform=" translate(-12, -12)" d="M 0 0 L 24 0 L 24 24 L 0 24 z" stroke-linecap="round" />
</g>
<g transform="matrix(0.6 0 0 0.6 250 250)" id="QMafp7Cangc1el12SJ5LX"  >
<path style="stroke: none; stroke-width: 1; stroke-dasharray: none; stroke-linecap: butt; stroke-dashoffset: 0; stroke-linejoin: miter; stroke-miterlimit: 4; fill: none; fill-rule: nonzero; opacity: 1;" vector-effect="non-scaling-stroke"  transform=" translate(-12, -12)" d="M 12 2 C 6.47 2 2 6.47 2 12 C 2 17.53 6.47 22 12 22 C 17.53 22 22 17.53 22 12 C 22 6.469999999999999 17.53 2 12 2 z M 17 15.59 L 15.59 17 L 12 13.41 L 8.41 17 L 7 15.59 L 10.59 12 L 7 8.41 L 8.41 7 L 12 10.59 L 15.59 7 L 17 8.41 L 13.41 12 L 17 15.59 z" stroke-linecap="round" />
</g>
<g transform="matrix(0.6 0 0 0.6 250 250)" id="cIqljT4mYm9heTrh_0ofi"  >
<path style="stroke: none; stroke-width: 1; stroke-dasharray: none; stroke-linecap: butt; stroke-dashoffset: 0; stroke-linejoin: miter; stroke-miterlimit: 4; fill: none; fill-rule: nonzero; opacity: 1;" vector-effect="non-scaling-stroke"  transform=" translate(-12, -12)" d="M 0 0 L 24 0 L 24 24 L 0 24 z" stroke-linecap="round" />
</g>
<g transform="matrix(1 0 0 1 250 250)" id="tyHm5dv08iXcdt1UWnI5Z"  >
<path style="stroke: none; stroke-width: 1; stroke-dasharray: none; stroke-linecap: butt; stroke-dashoffset: 0; stroke-linejoin: miter; stroke-miterlimit: 4; fill: rgb(247,47,58); fill-rule: nonzero; opacity: 1;" vector-effect="non-scaling-stroke"  transform=" translate(-7.5, -7.5)" d="M 7.5 0 C 3.3525 0 0 3.3525 0 7.5 C 0 11.6475 3.3525 15 7.5 15 C 11.6475 15 15 11.6475 15 7.5 C 15 3.3525 11.6475 0 7.5 0 z M 11.25 10.1925 L 10.192499999999999 11.25 L 7.499999999999999 8.557500000000001 L 4.807499999999999 11.25 L 3.749999999999999 10.192499999999999 L 6.442499999999999 7.499999999999999 L 3.749999999999999 4.807499999999999 L 4.807499999999999 3.749999999999999 L 7.499999999999999 6.442499999999999 L 10.192499999999999 3.749999999999999 L 11.25 4.807499999999999 L 8.557500000000001 7.499999999999999 z" stroke-linecap="round" />
</g>
</svg>