<?xml version="1.0" encoding="UTF-8" standalone="no" ?>
<!DOCTYPE svg PUBLIC "-//W3C//DTD SVG 1.1//EN" "http://www.w3.org/Graphics/SVG/1.1/DTD/svg11.dtd">
<svg xmlns="http://www.w3.org/2000/svg" xmlns:xlink="http://www.w3.org/1999/xlink" version="1.1" width="500" height="500" viewBox="0 0 500 500" xml:space="preserve">
<desc>Created with Fabric.js 4.6.0</desc>
<defs>
</defs>
<g transform="matrix(1 0 0 1 269 311.55)" id="2bnwIgCd8quuByb_IBSyB"  >
<path style="stroke: none; stroke-width: 1; stroke-dasharray: none; stroke-linecap: butt; stroke-dashoffset: 0; stroke-linejoin: miter; stroke-miterlimit: 4; fill: none; fill-rule: nonzero; opacity: 1;" vector-effect="non-scaling-stroke"  transform=" translate(-12, -12)" d="M 0 0 L 24 0 L 24 24 L 0 24 L 0 0 z" stroke-linecap="round" />
</g>
<g transform="matrix(0.6 0 0 0.6 250 250)" id="3geKquM8fC2Y8spa-4hUx"  >
<path style="stroke: none; stroke-width: 1; stroke-dasharray: none; stroke-linecap: butt; stroke-dashoffset: 0; stroke-linejoin: miter; stroke-miterlimit: 4; fill: none; fill-rule: nonzero; opacity: 1;" vector-effect="non-scaling-stroke"  transform=" translate(-12, -12)" d="M 0 0 L 24 0 L 24 24 L 0 24 z" stroke-linecap="round" />
</g>
<g transform="matrix(0.6 0 0 0.6 250 250)" id="51L4NBb2ozKWWGB5fW9eg"  >
<path style="stroke: none; stroke-width: 1; stroke-dasharray: none; stroke-linecap: butt; stroke-dashoffset: 0; stroke-linejoin: miter; stroke-miterlimit: 4; fill: none; fill-rule: nonzero; opacity: 1;" vector-effect="non-scaling-stroke"  transform=" translate(-12, -12)" d="M 12 2 C 6.47 2 2 6.47 2 12 C 2 17.53 6.47 22 12 22 C 17.53 22 22 17.53 22 12 C 22 6.469999999999999 17.53 2 12 2 z M 17 15.59 L 15.59 17 L 12 13.41 L 8.41 17 L 7 15.59 L 10.59 12 L 7 8.41 L 8.41 7 L 12 10.59 L 15.59 7 L 17 8.41 L 13.41 12 L 17 15.59 z" stroke-linecap="round" />
</g>
<g transform="matrix(0.6 0 0 0.6 250 250)" id="501dvsGUBdP-K3nxFohcb"  >
<path style="stroke: none; stroke-width: 1; stroke-dasharray: none; stroke-linecap: butt; stroke-dashoffset: 0; stroke-linejoin: miter; stroke-miterlimit: 4; fill: none; fill-rule: nonzero; opacity: 1;" vector-effect="non-scaling-stroke"  transform=" translate(-12, -12)" d="M 0 0 L 24 0 L 24 24 L 0 24 z" stroke-linecap="round" />
</g>
<g transform="matrix(0.6 0 0 0.6 250 250)" id="foUbSKaIpZdhDdAkKkkDv"  >
<path style="stroke: none; stroke-width: 1; stroke-dasharray: none; stroke-linecap: butt; stroke-dashoffset: 0; stroke-linejoin: miter; stroke-miterlimit: 4; fill: none; fill-rule: nonzero; opacity: 1;" vector-effect="non-scaling-stroke"  transform=" translate(-12, -12)" d="M 0 0 L 24 0 L 24 24 L 0 24 L 0 0 z M 0 0 L 24 0 L 24 24 L 0 24 L 0 0 z" stroke-linecap="round" />
</g>
<g transform="matrix(0.6 0 0 0.6 250 250)" id="WrME-eXt6G135fy8Fl760"  >
<path style="stroke: none; stroke-width: 1; stroke-dasharray: none; stroke-linecap: butt; stroke-dashoffset: 0; stroke-linejoin: miter; stroke-miterlimit: 4; fill: none; fill-rule: nonzero; opacity: 1;" vector-effect="non-scaling-stroke"  transform=" translate(-12, -12)" d="M 0 0 L 24 0 L 24 24 L 0 24 L 0 0 z" stroke-linecap="round" />
</g>
<g transform="matrix(0.6 0 0 0.6 250 250)" id="gH-bPoQR2t698mMriB_dA"  >
<path style="stroke: none; stroke-width: 1; stroke-dasharray: none; stroke-linecap: butt; stroke-dashoffset: 0; stroke-linejoin: miter; stroke-miterlimit: 4; fill: none; fill-rule: nonzero; opacity: 1;" vector-effect="non-scaling-stroke"  transform=" translate(-12, -12)" d="M 0 0 L 24 0 L 24 24 L 0 24 L 0 0 z" stroke-linecap="round" />
</g>
<g transform="matrix(1 0 0 1 250 250)" id="Ew6yxsP6j7dcu45vegwtq"  >
<path style="stroke: none; stroke-width: 1; stroke-dasharray: none; stroke-linecap: butt; stroke-dashoffset: 0; stroke-linejoin: miter; stroke-miterlimit: 4; fill: none; fill-rule: nonzero; opacity: 1;" vector-effect="non-scaling-stroke"  transform=" translate(-12, -12)" d="M 0 0 L 24 0 L 24 24 L 0 24 z" stroke-linecap="round" />
</g>
<g transform="matrix(1 0 0 1 250 250)" id="QquYN5uqaJPeJ899goY6N"  >
<path style="stroke: none; stroke-width: 1; stroke-dasharray: none; stroke-linecap: butt; stroke-dashoffset: 0; stroke-linejoin: miter; stroke-miterlimit: 4; fill: none; fill-rule: nonzero; opacity: 1;" vector-effect="non-scaling-stroke"  transform=" translate(-12, -12)" d="M 12 2 C 6.47 2 2 6.47 2 12 C 2 17.53 6.47 22 12 22 C 17.53 22 22 17.53 22 12 C 22 6.469999999999999 17.53 2 12 2 z M 17 15.59 L 15.59 17 L 12 13.41 L 8.41 17 L 7 15.59 L 10.59 12 L 7 8.41 L 8.41 7 L 12 10.59 L 15.59 7 L 17 8.41 L 13.41 12 L 17 15.59 z" stroke-linecap="round" />
</g>
<g transform="matrix(1 0 0 1 250 250)" id="o6c4JS30tzVwFSxMjFiKT"  >
<path style="stroke: none; stroke-width: 1; stroke-dasharray: none; stroke-linecap: butt; stroke-dashoffset: 0; stroke-linejoin: miter; stroke-miterlimit: 4; fill: none; fill-rule: nonzero; opacity: 1;" vector-effect="non-scaling-stroke"  transform=" translate(-12, -12)" d="M 0 0 L 24 0 L 24 24 L 0 24 z" stroke-linecap="round" />
</g>
<g transform="matrix(1 0 0 1 250 250)" id="KLHJ4A3XEbHxBTRrYWc2h"  >
<path style="stroke: none; stroke-width: 1; stroke-dasharray: none; stroke-linecap: butt; stroke-dashoffset: 0; stroke-linejoin: miter; stroke-miterlimit: 4; fill: none; fill-rule: nonzero; opacity: 1;" vector-effect="non-scaling-stroke"  transform=" translate(-12, -12)" d="M 0 0 L 24 0 L 24 24 L 0 24 L 0 0 z M 0 0 L 24 0 L 24 24 L 0 24 L 0 0 z" stroke-linecap="round" />
</g>
<g transform="matrix(1 0 0 1 250 250)" id="hyNy0ypgsD9NlVABHI86x"  >
<path style="stroke: none; stroke-width: 1; stroke-dasharray: none; stroke-linecap: butt; stroke-dashoffset: 0; stroke-linejoin: miter; stroke-miterlimit: 4; fill: none; fill-rule: nonzero; opacity: 1;" vector-effect="non-scaling-stroke"  transform=" translate(-12, -12)" d="M 0 0 L 24 0 L 24 24 L 0 24 L 0 0 z" stroke-linecap="round" />
</g>
<g transform="matrix(1 0 0 1 250 250)" id="mGf5MOMRcoxo8J-IKF-Zl"  >
<path style="stroke: none; stroke-width: 1; stroke-dasharray: none; stroke-linecap: butt; stroke-dashoffset: 0; stroke-linejoin: miter; stroke-miterlimit: 4; fill: none; fill-rule: nonzero; opacity: 1;" vector-effect="non-scaling-stroke"  transform=" translate(-12, -12)" d="M 0 0 L 24 0 L 24 24 L 0 24 L 0 0 z" stroke-linecap="round" />
</g>
<g transform="matrix(1 0 0 1 269 311.55)" id="XM1OtbiCSt2JF-qwxlH4u"  >
<path style="stroke: none; stroke-width: 1; stroke-dasharray: none; stroke-linecap: butt; stroke-dashoffset: 0; stroke-linejoin: miter; stroke-miterlimit: 4; fill: none; fill-rule: nonzero; opacity: 1;" vector-effect="non-scaling-stroke"  transform=" translate(-12, -12)" d="M 0 0 L 24 0 L 24 24 L 0 24 L 0 0 z" stroke-linecap="round" />
</g>
<g transform="matrix(1 0 0 1 250 250)" id="BwvM0_Vi7w0RJftU4bVXE"  >
<path style="stroke: none; stroke-width: 1; stroke-dasharray: none; stroke-linecap: butt; stroke-dashoffset: 0; stroke-linejoin: miter; stroke-miterlimit: 4; fill: none; fill-rule: nonzero; opacity: 1;" vector-effect="non-scaling-stroke"  transform=" translate(-12, -12)" d="M 0 0 L 24 0 L 24 24 L 0 24 z" stroke-linecap="round" />
</g>
<g transform="matrix(1 0 0 1 250 250)" id="rVzvsR3qC9fCRpf5KhHev"  >
<path style="stroke: none; stroke-width: 1; stroke-dasharray: none; stroke-linecap: butt; stroke-dashoffset: 0; stroke-linejoin: miter; stroke-miterlimit: 4; fill: none; fill-rule: nonzero; opacity: 1;" vector-effect="non-scaling-stroke"  transform=" translate(-12, -12)" d="M 12 2 C 6.47 2 2 6.47 2 12 C 2 17.53 6.47 22 12 22 C 17.53 22 22 17.53 22 12 C 22 6.469999999999999 17.53 2 12 2 z M 17 15.59 L 15.59 17 L 12 13.41 L 8.41 17 L 7 15.59 L 10.59 12 L 7 8.41 L 8.41 7 L 12 10.59 L 15.59 7 L 17 8.41 L 13.41 12 L 17 15.59 z" stroke-linecap="round" />
</g>
<g transform="matrix(1 0 0 1 250 250)" id="8XyYLMK9ViSvxFmfiUFdQ"  >
<path style="stroke: none; stroke-width: 1; stroke-dasharray: none; stroke-linecap: butt; stroke-dashoffset: 0; stroke-linejoin: miter; stroke-miterlimit: 4; fill: none; fill-rule: nonzero; opacity: 1;" vector-effect="non-scaling-stroke"  transform=" translate(-12, -12)" d="M 0 0 L 24 0 L 24 24 L 0 24 z" stroke-linecap="round" />
</g>
<g transform="matrix(1 0 0 1 250 250)" id="zG53bPp_in8vSYofaQXyI"  >
<path style="stroke: none; stroke-width: 1; stroke-dasharray: none; stroke-linecap: butt; stroke-dashoffset: 0; stroke-linejoin: miter; stroke-miterlimit: 4; fill: none; fill-rule: nonzero; opacity: 1;" vector-effect="non-scaling-stroke"  transform=" translate(-12, -12)" d="M 0 0 L 24 0 L 24 24 L 0 24 z" stroke-linecap="round" />
</g>
<g transform="matrix(0.6 0 0 0.6 250 250)" id="KvdtzOPmt7f-GZF4Xqprj"  >
<path style="stroke: none; stroke-width: 1; stroke-dasharray: none; stroke-linecap: butt; stroke-dashoffset: 0; stroke-linejoin: miter; stroke-miterlimit: 4; fill: none; fill-rule: nonzero; opacity: 1;" vector-effect="non-scaling-stroke"  transform=" translate(-12, -12)" d="M 0 0 L 24 0 L 24 24 L 0 24 z" stroke-linecap="round" />
</g>
<g transform="matrix(0.6 0 0 0.6 250 249.4)" id="le31RTomjNZMylaRqfoVT"  >
<path style="stroke: none; stroke-width: 1; stroke-dasharray: none; stroke-linecap: butt; stroke-dashoffset: 0; stroke-linejoin: miter; stroke-miterlimit: 4; fill: rgb(0,0,0); fill-rule: nonzero; opacity: 1;" vector-effect="non-scaling-stroke"  transform=" translate(-12, -11)" d="M 12 6 C 13.11 6 14 5.1 14 4 C 14 3.62 13.9 3.27 13.71 2.9699999999999998 L 12 0 L 10.29 2.97 C 10.1 3.27 10 3.62 10 4 C 10 5.1 10.9 6 12 6 z M 16.6 15.99 L 15.530000000000001 14.92 L 14.450000000000001 15.99 C 13.15 17.29 10.870000000000001 17.3 9.560000000000002 15.99 L 8.490000000000002 14.92 L 7.400000000000002 15.99 C 6.75 16.64 5.88 17 4.96 17 C 4.23 17 3.56 16.77 3 16.39 L 3 21 C 3 21.55 3.45 22 4 22 L 20 22 C 20.55 22 21 21.55 21 21 L 21 16.39 C 20.44 16.77 19.77 17 19.04 17 C 18.119999999999997 17 17.25 16.64 16.599999999999998 15.99 z M 18 9 L 13 9 L 13 7 L 11 7 L 11 9 L 6 9 C 4.34 9 3 10.34 3 12 L 3 13.54 C 3 14.62 3.88 15.5 4.96 15.5 C 5.48 15.5 5.98 15.3 6.34 14.93 L 8.48 12.8 L 10.61 14.93 C 11.35 15.67 12.639999999999999 15.67 13.379999999999999 14.93 L 15.52 12.8 L 17.65 14.93 C 18.02 15.299999999999999 18.509999999999998 15.5 19.029999999999998 15.5 C 20.11 15.5 20.99 14.62 20.99 13.54 L 20.99 12 C 21 10.34 19.66 9 18 9 z" stroke-linecap="round" />
</g>
</svg>