<?xml version="1.0" encoding="UTF-8" standalone="no" ?>
<!DOCTYPE svg PUBLIC "-//W3C//DTD SVG 1.1//EN" "http://www.w3.org/Graphics/SVG/1.1/DTD/svg11.dtd">
<svg xmlns="http://www.w3.org/2000/svg" xmlns:xlink="http://www.w3.org/1999/xlink" version="1.1" width="500" height="500" viewBox="0 0 500 500" xml:space="preserve">
<desc>Created with Fabric.js 4.6.0</desc>
<defs>
</defs>
<g transform="matrix(1 0 0 1 250 250)" id="msps0UYL6CnU0EDiftinU"  >
<path style="stroke: none; stroke-width: 1; stroke-dasharray: none; stroke-linecap: butt; stroke-dashoffset: 0; stroke-linejoin: miter; stroke-miterlimit: 4; fill: none; fill-rule: nonzero; opacity: 1;" vector-effect="non-scaling-stroke"  transform=" translate(-12, -12)" d="M 0 0 L 24 0 L 24 24 L 0 24 z" stroke-linecap="round" />
</g>
<g transform="matrix(1 0 0 1 250 250)" id="U7uwbeF2KqgnYlw8EH6CK"  >
<path style="stroke: none; stroke-width: 1; stroke-dasharray: none; stroke-linecap: butt; stroke-dashoffset: 0; stroke-linejoin: miter; stroke-miterlimit: 4; fill: none; fill-rule: nonzero; opacity: 1;" vector-effect="non-scaling-stroke"  transform=" translate(-12, -12)" d="M 12 2 C 6.47 2 2 6.47 2 12 C 2 17.53 6.47 22 12 22 C 17.53 22 22 17.53 22 12 C 22 6.469999999999999 17.53 2 12 2 z M 17 15.59 L 15.59 17 L 12 13.41 L 8.41 17 L 7 15.59 L 10.59 12 L 7 8.41 L 8.41 7 L 12 10.59 L 15.59 7 L 17 8.41 L 13.41 12 L 17 15.59 z" stroke-linecap="round" />
</g>
<g transform="matrix(1 0 0 1 250 250)" id="q8fyeTdw6wV79rU3qgsrx"  >
<path style="stroke: none; stroke-width: 1; stroke-dasharray: none; stroke-linecap: butt; stroke-dashoffset: 0; stroke-linejoin: miter; stroke-miterlimit: 4; fill: none; fill-rule: nonzero; opacity: 1;" vector-effect="non-scaling-stroke"  transform=" translate(-12, -12)" d="M 0 0 L 24 0 L 24 24 L 0 24 z" stroke-linecap="round" />
</g>
<g transform="matrix(1 0 0 1 250 250)" id="h30yswo5Atrjiqb-GcTYC"  >
<path style="stroke: none; stroke-width: 1; stroke-dasharray: none; stroke-linecap: butt; stroke-dashoffset: 0; stroke-linejoin: miter; stroke-miterlimit: 4; fill: none; fill-rule: nonzero; opacity: 1;" vector-effect="non-scaling-stroke"  transform=" translate(-12, -12)" d="M 0 0 L 24 0 L 24 24 L 0 24 L 0 0 z M 0 0 L 24 0 L 24 24 L 0 24 L 0 0 z" stroke-linecap="round" />
</g>
<g transform="matrix(1 0 0 1 250 250)" id="hUqVXelXZ9hgC3khlTYTI"  >
<path style="stroke: none; stroke-width: 1; stroke-dasharray: none; stroke-linecap: butt; stroke-dashoffset: 0; stroke-linejoin: miter; stroke-miterlimit: 4; fill: none; fill-rule: nonzero; opacity: 1;" vector-effect="non-scaling-stroke"  transform=" translate(-12, -12)" d="M 0 0 L 24 0 L 24 24 L 0 24 L 0 0 z" stroke-linecap="round" />
</g>
<g transform="matrix(1 0 0 1 250 250)" id="j7pTkHwDPccv7hRIRuc6J"  >
<path style="stroke: none; stroke-width: 1; stroke-dasharray: none; stroke-linecap: butt; stroke-dashoffset: 0; stroke-linejoin: miter; stroke-miterlimit: 4; fill: none; fill-rule: nonzero; opacity: 1;" vector-effect="non-scaling-stroke"  transform=" translate(-12, -12)" d="M 0 0 L 24 0 L 24 24 L 0 24 L 0 0 z" stroke-linecap="round" />
</g>
<g transform="matrix(1 0 0 1 269 311.55)" id="2bnwIgCd8quuByb_IBSyB"  >
<path style="stroke: none; stroke-width: 1; stroke-dasharray: none; stroke-linecap: butt; stroke-dashoffset: 0; stroke-linejoin: miter; stroke-miterlimit: 4; fill: none; fill-rule: nonzero; opacity: 1;" vector-effect="non-scaling-stroke"  transform=" translate(-12, -12)" d="M 0 0 L 24 0 L 24 24 L 0 24 L 0 0 z" stroke-linecap="round" />
</g>
<g transform="matrix(0.75 0 0 1 251.92 251.48)" style="" id="gM0qVlenLWS_JgJMQ7LM7"  >
		<text xml:space="preserve" font-family="Open Sans" font-size="15" font-style="normal" font-weight="600" line-height="1" style="stroke: none; stroke-width: 1; stroke-dasharray: none; stroke-linecap: butt; stroke-dashoffset: 0; stroke-linejoin: miter; stroke-miterlimit: 4; fill: rgb(0,0,0); fill-rule: nonzero; opacity: 1; white-space: pre;" ><tspan x="-4.79" y="4.71" >R</tspan></text>
</g>
<g transform="matrix(1 0 0 1 251.97 251.97)" id="dhh5VKjAwiXPUO68h3_QV"  >
<path style="stroke: rgb(63,185,215); stroke-width: 0; stroke-dasharray: none; stroke-linecap: butt; stroke-dashoffset: 0; stroke-linejoin: miter; stroke-miterlimit: 4; fill: rgb(0,106,255); fill-opacity: 0.35; fill-rule: nonzero; opacity: 1;" vector-effect="non-scaling-stroke"  transform=" translate(-10, -10)" d="M 0 1.0155 C 0 0.4546500000000001 0.45466 0 1.0155 0 L 18.9845 0 L 18.9845 0 C 19.54535 0 20 0.45466 20 1.0155 L 20 18.9845 L 20 18.9845 C 20 19.54535 19.54534 20 18.9845 20 L 1.0154999999999994 20 L 1.0154999999999994 20 C 0.45464999999999944 20 -6.661338147750939e-16 19.54534 -6.661338147750939e-16 18.9845 z" stroke-linecap="round" />
</g>
<g transform="matrix(1 0 0 1 250 250)" id="KIgwA6h-Bi7F2zjFE19ei"  >
<path style="stroke: none; stroke-width: 1; stroke-dasharray: none; stroke-linecap: butt; stroke-dashoffset: 0; stroke-linejoin: miter; stroke-miterlimit: 4; fill: none; fill-rule: nonzero; opacity: 1;" vector-effect="non-scaling-stroke"  transform=" translate(-12, -12)" d="M 0 0 L 24 0 L 24 24 L 0 24 z" stroke-linecap="round" />
</g>
<g transform="matrix(1 0 0 1 250 250)" id="opubLXpc4BsYh7mCx_kIW"  >
<path style="stroke: none; stroke-width: 1; stroke-dasharray: none; stroke-linecap: butt; stroke-dashoffset: 0; stroke-linejoin: miter; stroke-miterlimit: 4; fill: none; fill-rule: nonzero; opacity: 1;" vector-effect="non-scaling-stroke"  transform=" translate(-12, -12)" d="M 12 2 C 6.47 2 2 6.47 2 12 C 2 17.53 6.47 22 12 22 C 17.53 22 22 17.53 22 12 C 22 6.469999999999999 17.53 2 12 2 z M 17 15.59 L 15.59 17 L 12 13.41 L 8.41 17 L 7 15.59 L 10.59 12 L 7 8.41 L 8.41 7 L 12 10.59 L 15.59 7 L 17 8.41 L 13.41 12 L 17 15.59 z" stroke-linecap="round" />
</g>
<g transform="matrix(1 0 0 1 250 250)" id="29xKJ8fKh6ybM2zBYvLK0"  >
<path style="stroke: none; stroke-width: 1; stroke-dasharray: none; stroke-linecap: butt; stroke-dashoffset: 0; stroke-linejoin: miter; stroke-miterlimit: 4; fill: none; fill-rule: nonzero; opacity: 1;" vector-effect="non-scaling-stroke"  transform=" translate(-12, -12)" d="M 0 0 L 24 0 L 24 24 L 0 24 z" stroke-linecap="round" />
</g>
</svg>