<?xml version="1.0" encoding="UTF-8" standalone="no" ?>
<!DOCTYPE svg PUBLIC "-//W3C//DTD SVG 1.1//EN" "http://www.w3.org/Graphics/SVG/1.1/DTD/svg11.dtd">
<svg xmlns="http://www.w3.org/2000/svg" xmlns:xlink="http://www.w3.org/1999/xlink" version="1.1" width="500" height="500" viewBox="0 0 500 500" xml:space="preserve">
<desc>Created with Fabric.js 4.6.0</desc>
<defs>
</defs>
<g transform="matrix(1 0 0 1 269 311.55)" id="2bnwIgCd8quuByb_IBSyB"  >
<path style="stroke: none; stroke-width: 1; stroke-dasharray: none; stroke-linecap: butt; stroke-dashoffset: 0; stroke-linejoin: miter; stroke-miterlimit: 4; fill: none; fill-rule: nonzero; opacity: 1;" vector-effect="non-scaling-stroke"  transform=" translate(-12, -12)" d="M 0 0 L 24 0 L 24 24 L 0 24 L 0 0 z" stroke-linecap="round" />
</g>
<g transform="matrix(0.6 0 0 0.6 250 250)" id="3geKquM8fC2Y8spa-4hUx"  >
<path style="stroke: none; stroke-width: 1; stroke-dasharray: none; stroke-linecap: butt; stroke-dashoffset: 0; stroke-linejoin: miter; stroke-miterlimit: 4; fill: none; fill-rule: nonzero; opacity: 1;" vector-effect="non-scaling-stroke"  transform=" translate(-12, -12)" d="M 0 0 L 24 0 L 24 24 L 0 24 z" stroke-linecap="round" />
</g>
<g transform="matrix(0.6 0 0 0.6 250 250)" id="51L4NBb2ozKWWGB5fW9eg"  >
<path style="stroke: none; stroke-width: 1; stroke-dasharray: none; stroke-linecap: butt; stroke-dashoffset: 0; stroke-linejoin: miter; stroke-miterlimit: 4; fill: none; fill-rule: nonzero; opacity: 1;" vector-effect="non-scaling-stroke"  transform=" translate(-12, -12)" d="M 12 2 C 6.47 2 2 6.47 2 12 C 2 17.53 6.47 22 12 22 C 17.53 22 22 17.53 22 12 C 22 6.469999999999999 17.53 2 12 2 z M 17 15.59 L 15.59 17 L 12 13.41 L 8.41 17 L 7 15.59 L 10.59 12 L 7 8.41 L 8.41 7 L 12 10.59 L 15.59 7 L 17 8.41 L 13.41 12 L 17 15.59 z" stroke-linecap="round" />
</g>
<g transform="matrix(0.6 0 0 0.6 250 250)" id="501dvsGUBdP-K3nxFohcb"  >
<path style="stroke: none; stroke-width: 1; stroke-dasharray: none; stroke-linecap: butt; stroke-dashoffset: 0; stroke-linejoin: miter; stroke-miterlimit: 4; fill: none; fill-rule: nonzero; opacity: 1;" vector-effect="non-scaling-stroke"  transform=" translate(-12, -12)" d="M 0 0 L 24 0 L 24 24 L 0 24 z" stroke-linecap="round" />
</g>
<g transform="matrix(0.6 0 0 0.6 250 250)" id="foUbSKaIpZdhDdAkKkkDv"  >
<path style="stroke: none; stroke-width: 1; stroke-dasharray: none; stroke-linecap: butt; stroke-dashoffset: 0; stroke-linejoin: miter; stroke-miterlimit: 4; fill: none; fill-rule: nonzero; opacity: 1;" vector-effect="non-scaling-stroke"  transform=" translate(-12, -12)" d="M 0 0 L 24 0 L 24 24 L 0 24 L 0 0 z M 0 0 L 24 0 L 24 24 L 0 24 L 0 0 z" stroke-linecap="round" />
</g>
<g transform="matrix(0.6 0 0 0.6 250 250)" id="WrME-eXt6G135fy8Fl760"  >
<path style="stroke: none; stroke-width: 1; stroke-dasharray: none; stroke-linecap: butt; stroke-dashoffset: 0; stroke-linejoin: miter; stroke-miterlimit: 4; fill: none; fill-rule: nonzero; opacity: 1;" vector-effect="non-scaling-stroke"  transform=" translate(-12, -12)" d="M 0 0 L 24 0 L 24 24 L 0 24 L 0 0 z" stroke-linecap="round" />
</g>
<g transform="matrix(0.6 0 0 0.6 250 250)" id="gH-bPoQR2t698mMriB_dA"  >
<path style="stroke: none; stroke-width: 1; stroke-dasharray: none; stroke-linecap: butt; stroke-dashoffset: 0; stroke-linejoin: miter; stroke-miterlimit: 4; fill: none; fill-rule: nonzero; opacity: 1;" vector-effect="non-scaling-stroke"  transform=" translate(-12, -12)" d="M 0 0 L 24 0 L 24 24 L 0 24 L 0 0 z" stroke-linecap="round" />
</g>
<g transform="matrix(1 0 0 1 250 250)" id="tCc1FFLNhSYDv8U_R2PAm"  >
<path style="stroke: none; stroke-width: 1; stroke-dasharray: none; stroke-linecap: butt; stroke-dashoffset: 0; stroke-linejoin: miter; stroke-miterlimit: 4; fill: rgb(252,134,29); fill-rule: nonzero; opacity: 1;" vector-effect="non-scaling-stroke"  transform=" translate(-4.5, -7.5)" d="M 0 0 L 0 4.49998 L 0.0075 4.49998 L 0 4.50748 L 3 7.49996 L 0 10.499939999999999 L 0.0075 10.507439999999999 L 0 10.507439999999999 L 0 15.00007 L 9 15.00007 L 9 10.507439999999999 L 8.9925 10.507439999999999 L 9 10.499939999999999 L 6 7.499959999999999 L 9 4.507479999999999 L 8.9925 4.499979999999999 L 9 4.499979999999999 L 9 -8.881784197001252e-16 z" stroke-linecap="round" />
</g>
</svg>