<?xml version="1.0" encoding="UTF-8" standalone="no" ?>
<!DOCTYPE svg PUBLIC "-//W3C//DTD SVG 1.1//EN" "http://www.w3.org/Graphics/SVG/1.1/DTD/svg11.dtd">
<svg xmlns="http://www.w3.org/2000/svg" xmlns:xlink="http://www.w3.org/1999/xlink" version="1.1" width="500" height="500" viewBox="0 0 500 500" xml:space="preserve">
<desc>Created with Fabric.js 4.6.0</desc>
<defs>
</defs>
<g transform="matrix(1 0 0 1 250 250)" id="msps0UYL6CnU0EDiftinU"  >
<path style="stroke: none; stroke-width: 1; stroke-dasharray: none; stroke-linecap: butt; stroke-dashoffset: 0; stroke-linejoin: miter; stroke-miterlimit: 4; fill: none; fill-rule: nonzero; opacity: 1;" vector-effect="non-scaling-stroke"  transform=" translate(-12, -12)" d="M 0 0 L 24 0 L 24 24 L 0 24 z" stroke-linecap="round" />
</g>
<g transform="matrix(1 0 0 1 250 250)" id="U7uwbeF2KqgnYlw8EH6CK"  >
<path style="stroke: none; stroke-width: 1; stroke-dasharray: none; stroke-linecap: butt; stroke-dashoffset: 0; stroke-linejoin: miter; stroke-miterlimit: 4; fill: none; fill-rule: nonzero; opacity: 1;" vector-effect="non-scaling-stroke"  transform=" translate(-12, -12)" d="M 12 2 C 6.47 2 2 6.47 2 12 C 2 17.53 6.47 22 12 22 C 17.53 22 22 17.53 22 12 C 22 6.469999999999999 17.53 2 12 2 z M 17 15.59 L 15.59 17 L 12 13.41 L 8.41 17 L 7 15.59 L 10.59 12 L 7 8.41 L 8.41 7 L 12 10.59 L 15.59 7 L 17 8.41 L 13.41 12 L 17 15.59 z" stroke-linecap="round" />
</g>
<g transform="matrix(1 0 0 1 250 250)" id="q8fyeTdw6wV79rU3qgsrx"  >
<path style="stroke: none; stroke-width: 1; stroke-dasharray: none; stroke-linecap: butt; stroke-dashoffset: 0; stroke-linejoin: miter; stroke-miterlimit: 4; fill: none; fill-rule: nonzero; opacity: 1;" vector-effect="non-scaling-stroke"  transform=" translate(-12, -12)" d="M 0 0 L 24 0 L 24 24 L 0 24 z" stroke-linecap="round" />
</g>
<g transform="matrix(1 0 0 1 250 250)" id="h30yswo5Atrjiqb-GcTYC"  >
<path style="stroke: none; stroke-width: 1; stroke-dasharray: none; stroke-linecap: butt; stroke-dashoffset: 0; stroke-linejoin: miter; stroke-miterlimit: 4; fill: none; fill-rule: nonzero; opacity: 1;" vector-effect="non-scaling-stroke"  transform=" translate(-12, -12)" d="M 0 0 L 24 0 L 24 24 L 0 24 L 0 0 z M 0 0 L 24 0 L 24 24 L 0 24 L 0 0 z" stroke-linecap="round" />
</g>
<g transform="matrix(1 0 0 1 250 250)" id="hUqVXelXZ9hgC3khlTYTI"  >
<path style="stroke: none; stroke-width: 1; stroke-dasharray: none; stroke-linecap: butt; stroke-dashoffset: 0; stroke-linejoin: miter; stroke-miterlimit: 4; fill: none; fill-rule: nonzero; opacity: 1;" vector-effect="non-scaling-stroke"  transform=" translate(-12, -12)" d="M 0 0 L 24 0 L 24 24 L 0 24 L 0 0 z" stroke-linecap="round" />
</g>
<g transform="matrix(1 0 0 1 250 250)" id="j7pTkHwDPccv7hRIRuc6J"  >
<path style="stroke: none; stroke-width: 1; stroke-dasharray: none; stroke-linecap: butt; stroke-dashoffset: 0; stroke-linejoin: miter; stroke-miterlimit: 4; fill: none; fill-rule: nonzero; opacity: 1;" vector-effect="non-scaling-stroke"  transform=" translate(-12, -12)" d="M 0 0 L 24 0 L 24 24 L 0 24 L 0 0 z" stroke-linecap="round" />
</g>
<g transform="matrix(1 0 0 1 250 250)" id="o9ltil0PfFFilBkoEzpRy"  >
<path style="stroke: none; stroke-width: 1; stroke-dasharray: none; stroke-linecap: butt; stroke-dashoffset: 0; stroke-linejoin: miter; stroke-miterlimit: 4; fill: rgb(252,134,29); fill-rule: nonzero; opacity: 1;" vector-effect="non-scaling-stroke"  transform=" translate(-12, -12)" d="M 6 2 L 6 8 L 6.01 8 L 6 8.01 L 10 12 L 6 16 L 6.01 16.01 L 6 16.01 L 6 22 L 18 22 L 18 16.009999999999998 L 17.99 16.009999999999998 L 18 16 L 14 12 L 18 8.01 L 17.99 8 L 18 8 L 18 2 L 6 2 z" stroke-linecap="round" />
</g>
</svg>